# AST/ASF file generated using VICON BodyLanguage
# -----------------------------------------------
:version 1.10
:name VICON
:units
  mass 1.0
  length 0.45
  angle deg
:documentation
   .ast/.asf automatically generated from VICON data using
   VICON BodyBuilder and BodyLanguage model FoxedUp or BRILLIANT.MOD
:root
   order TX TY TZ RX RY RZ
   axis XYZ
   position 0 0 0  
   orientation 0 0 0 
:bonedata
  begin
     id 1 
     name lhipjoint
     direction 0.561145 -0.797705 0.220866 
     length 2.46425 
     axis 0 0 0  XYZ
  end
  begin
     id 2 
     name lfemur
     direction 0.34202 -0.939693 0  
     length 7.95556  
     axis 0 0 20  XYZ
    dof rx ry rz
    limits (-160.0 20.0)
           (-70.0 70.0)
           (-60.0 70.0)
  end
  begin
     id 3 
     name ltibia
     direction 0.34202 -0.939693 0   
     length 7.9832   
     axis 0 0 20   XYZ
    dof rx
    limits (-10.0 170.0)
  end
  begin
     id 4 
     name lfoot
     direction 0.0723927 -0.198897 0.977343   
     length 2.23085   
     axis -90 7.62852e-016 20   XYZ
    dof rx rz
    limits (-45.0 90.0)
           (-70.0 20.0)
  end
  begin
     id 5 
     name ltoes
     direction 1.53826e-011 -4.21988e-011 1   
     length 1.12127   
     axis -90 7.62852e-016 20   XYZ
    dof rx
    limits (-90.0 20.0)
  end
  begin
     id 6 
     name rhipjoint
     direction -0.610499 -0.763299 0.21134   
     length 2.57533  
     axis 0 0 0  XYZ 
  end
  begin
     id 7 
     name rfemur
     direction -0.34202 -0.939693 0   
     length 8.65257   
     axis 0 0 -20   XYZ
    dof rx ry rz
    limits (-160.0 20.0)
           (-70.0 70.0)
           (-70.0 60.0)
  end
  begin
     id 8 
     name rtibia
     direction -0.342021 -0.939692 0   
     length 7.37807   
     axis 0 0 -20   XYZ
    dof rx
    limits (-10.0 170.0)
 end
 begin
     id 9 
     name rfoot
     direction -0.0239304 -0.0543852 0.998233   
     length 1.87018  
     axis -90 -7.62852e-016 -20   XYZ
    dof rx rz
    limits (-45.0 90.0)
           (-20.0 70.0)
  end
  begin
     id 10 
     name rtoes
     direction -1.53584e-011 -4.2242e-011 1   
     length 0.951568   
     axis -90 -7.62852e-016 -20   XYZ
    dof rx
    limits (-90.0 20.0)
  end
  begin
     id 11 
     name lowerback
     direction 0.00322089 0.999033 0.0438587   
     length 2.07568   
     axis 0 0 0   XYZ
    dof rx ry rz
    limits (-20.0 45.0)
           (-30.0 30.0)
           (-30.0 30.0)
  end
  begin
     id 12 
     name upperback
     direction -0.00321932 0.999732 -0.0229403   
     length 2.06253   
     axis 0 0 0   XYZ
    dof rx ry rz
    limits (-20.0 45.0)
           (-30.0 30.0)
           (-30.0 30.0)
  end
  begin
     id 13 
     name thorax
     direction -0.00537537 0.998955 -0.0453918   
     length 2.06975   
     axis 0 0 0   XYZ
    dof rx ry rz
    limits (-20.0 45.0)
           (-30.0 30.0)
           (-30.0 30.0)
  end
  begin
     id 14 
     name lowerneck
     direction -0.00013604 0.994111 0.108363   
     length 1.50836   
     axis 0 0 0   XYZ
    dof rx ry rz
    limits (-20.0 45.0)
           (-30.0 30.0)
           (-30.0 30.0)
  end
  begin
     id 15 
     name upperneck
     direction 0.0397262 0.983859 -0.174482   
     length 1.53037   
     axis 0 0 0   XYZ
    dof rx ry rz
    limits (-20.0 45.0)
           (-30.0 30.0)
           (-30.0 30.0)
  end
  begin
     id 16
     name head
     direction 0.0109991 0.997082 -0.0755378  
     length 1.56928  
     axis 0 0 0   XYZ
    dof rx ry rz
    limits (-20.0 45.0)
           (-30.0 30.0)
           (-30.0 30.0)
  end
  begin
     id 17 
     name lclavicle
     direction 0.964749 0.254 -0.068874  
     length 3.26503  
     axis 0 0 0   XYZ
    dof ry rz
    limits (-20.0 10.0)
           (0.0 20.0)
  end
  begin
     id 18 
     name lhumerus
     direction 1 -4.48941e-011 -2.05079e-027   
     length 5.68236   
     axis 180 -30 -90   XYZ
    dof rx ry rz
    limits (-60.0 90.0)
           (-90.0 90.0)
           (-90.0 90.0)
  end
  begin
     id 19
     name lradius
     direction 1 -4.48956e-011 6.2882e-027   
     length 3.17112   
     axis 180 -30 -90   XYZ
    dof rx
    limits (-10.0 170.0)
  end
  begin
     id 20
     name lwrist
     direction 1 -4.49014e-011 1.73219e-026   
     length 1.58556   
     axis -1.04724e-014 90 90   XYZ
    dof ry
    limits (-180.0 0.0)
 end
  begin
     id 21 
     name lhand
     direction 1 -4.49312e-011 3.46438e-026   
     length 0.632691   
     axis -2.21057e-014 90 90   XYZ
    dof rx rz
    limits (-90.0 90.0)
           (-45.0 45.0)
  end
  begin
     id 22 
     name lfingers
     direction 1 -4.48894e-011 6.92876e-026   
     length 0.510091   
     axis -4.42114e-014 90 90   XYZ
    dof rx
    limits (0.0 90.0)
  end
  begin
     id 23
     name lthumb
     direction 0.707107 -6.34705e-011 0.707107   
     length 0.732392   
     axis -90 45 2.85299e-015   XYZ
    dof rx rz
    limits (-45.0 45.0)
           (-45.0 45.0)
  end
  begin
     id 24 
     name rclavicle
     direction -0.954374 0.280496 -0.102435   
     length 3.25419  
     axis 0 0 0   XYZ 
    dof ry rz
    limits (-10.0 20.0)
           (-20.0 0.0)
  end
  begin
     id 25 
     name rhumerus
     direction -1 -4.48994e-011 -1.07204e-017  
     length 5.8712   
     axis 180 30 90   XYZ
    dof rx ry rz
    limits (-90.0 60.0)
           (-90.0 90.0)
           (-90.0 90.0)
  end
  begin
     id 26 
     name rradius
     direction -1 -4.48972e-011 5.89292e-027   
     length 3.37589   
     axis 180 30 90   XYZ
    dof rx
    limits (-10.0 170.0)
  end
  begin
     id 27 
     name rwrist
     direction -1 -4.48942e-011 1.73219e-026   
     length 1.68794   
     axis -1.04724e-014 -90 -90   XYZ
    dof ry
    limits (-180.0 0.0)
  end
  begin
     id 28
     name rhand
     direction -1 -4.48514e-011 3.46438e-026   
     length 0.603257   
     axis -2.21057e-014 -90 -90   XYZ
    dof rx rz
    limits (-90.0 90.0)
           (-45.0 45.0)
  end
  begin
     id 29
     name rfingers
     direction -1 -4.50028e-011 6.92876e-026   
     length 0.486362   
     axis -4.42114e-014 -90 -90   XYZ
    dof rx
    limits (0.0 90.0)
  end
  begin
     id 30
     name rthumb
     direction -0.707107 -6.34926e-011 0.707107   
     length 0.698321   
     axis -90 -45 -2.85299e-015   XYZ
    dof rx rz
    limits (-45.0 45.0)
           (-45.0 45.0)
  end
:hierarchy
  begin
    root lhipjoint rhipjoint lowerback
    lhipjoint lfemur
    lfemur ltibia
    ltibia lfoot
    lfoot ltoes
    rhipjoint rfemur
    rfemur rtibia
    rtibia rfoot
    rfoot rtoes
    lowerback upperback
    upperback thorax
    thorax lowerneck lclavicle rclavicle
    lowerneck upperneck
    upperneck head
    lclavicle lhumerus
    lhumerus lradius
    lradius lwrist
    lwrist lhand lthumb
    lhand lfingers
    rclavicle rhumerus
    rhumerus rradius
    rradius rwrist
    rwrist rhand rthumb
    rhand rfingers
  end

#!OML:ASF I:\Segmentation\Patient Classification 1\Patient 1\Session 1\Patient1.ASF
:FULLY-SPECIFIED
:DEGREES
1049
root 16.6877 18.2956 -0.923547 -357.022 -92.1169 18.4742
lowerback 6.46139 1.67444 -2.6017
upperback 11.3723 1.61459 -0.290997
thorax 8.29485 0.357522 1.1188
lowerneck -12.7469 0.0633581 -2.46058
upperneck -5.70845 0.1582 1.40185
head 0.326137 0.0259145 0.852943
rclavicle 1.43125e-014 3.12092e-014
rhumerus -26.7789 11.1964 -86.4011
rradius 30.0775
rwrist 13.5132
rhand -17.8453 24.2827
rfingers 7.12502
rthumb 8.41961 -5.52944
lclavicle 1.43125e-014 3.12092e-014
lhumerus -23.3719 -15.6578 86.5875
lradius 33.5538
lwrist 10.5145
lhand -11.1078 35.5073
lfingers 7.12502
lthumb 14.9167 64.9502
rfemur -41.5606 8.23497 10.1102
rtibia 30.3481
rfoot -7.93729 3.8008
rtoes 47.0181
lfemur -40.3386 3.20469 -16.3276
ltibia 34.2698
lfoot -18.0648 6.92908
ltoes -10.9597
1050
root 16.7231 18.2797 -0.916383 -357.573 -91.8999 19.2437
lowerback 6.80073 1.63054 -2.54538
upperback 11.4991 1.53148 -0.319238
thorax 8.24769 0.315865 1.05062
lowerneck -12.6355 -0.0177142 -2.50531
upperneck -6.0598 0.044103 1.4203
head 0.198191 -0.0344814 0.86002
rclavicle 5.56597e-015 2.22639e-014
rhumerus -26.3467 11.5108 -86.5151
rradius 29.9164
rwrist 13.1428
rhand -17.5656 24.1098
rfingers 7.12502
rthumb 8.6896 -5.69134
lclavicle 5.56597e-015 2.22639e-014
lhumerus -23.1137 -15.9116 86.6924
lradius 33.7223
lwrist 10.5265
lhand -10.4275 35.6544
lfingers 7.12502
lthumb 15.572 65.0475
rfemur -41.9389 8.03973 9.98021
rtibia 30.4532
rfoot -7.82639 3.81017
rtoes 47.1413
lfemur -40.9348 3.26611 -16.4432
ltibia 34.5793
lfoot -17.8561 6.79161
ltoes -11.2885
1051
root 16.7588 18.2622 -0.910325 -358.404 -91.6507 20.305
lowerback 7.13985 1.59756 -2.46958
upperback 11.5817 1.468 -0.359895
thorax 8.15118 0.288921 0.959129
lowerneck -12.3484 -0.10304 -2.45813
upperneck -6.46458 -0.0895113 1.42362
head 0.0255302 -0.106188 0.845849
rclavicle -4.37326e-015 -2.76311e-014
rhumerus -26.0238 11.701 -86.6407
rradius 29.7684
rwrist 12.8205
rhand -17.3381 24.108
rfingers 7.12502
rthumb 8.90906 -5.68387
lclavicle -4.37326e-015 -2.76311e-014
lhumerus -22.9284 -16.2615 86.8138
lradius 33.8431
lwrist 10.5156
lhand -9.82939 35.7462
lfingers 7.12502
lthumb 16.1479 65.0935
rfemur -42.3386 7.72974 9.90494
rtibia 30.6099
rfoot -7.62877 3.8244
rtoes 47.1929
lfemur -41.5637 3.31486 -16.563
ltibia 34.9086
lfoot -17.631 6.64619
ltoes -11.6753
1052
root 16.7949 18.2442 -0.905227 -359.318 -91.3853 21.4637
lowerback 7.47571 1.57943 -2.37243
upperback 11.6245 1.42982 -0.423207
thorax 8.01242 0.279735 0.832372
lowerneck -11.9195 -0.197441 -2.33744
upperneck -6.90914 -0.244579 1.43475
head -0.181045 -0.189961 0.821793
rclavicle -1.38155e-014 4.87022e-015
rhumerus -25.8146 11.7833 -86.7951
rradius 29.6558
rwrist 12.5223
rhand -17.1578 24.1663
rfingers 7.12502
rthumb 9.08312 -5.61809
lclavicle -1.38155e-014 4.87022e-015
lhumerus -22.8175 -16.7161 86.9357
lradius 33.9415
lwrist 10.5266
lhand -9.32136 35.7693
lfingers 7.12502
lthumb 16.6371 65.0762
rfemur -42.7681 7.34668 9.85959
rtibia 30.8123
rfoot -7.41155 3.83919
rtoes 47.1774
lfemur -42.2154 3.37923 -16.7052
ltibia 35.2415
lfoot -17.391 6.46824
ltoes -12.0222
1053
root 16.8311 18.2262 -0.900857 -360.271 -91.1218 22.6708
lowerback 7.8115 1.57365 -2.25361
upperback 11.6484 1.4116 -0.505551
thorax 7.85327 0.284062 0.673706
lowerneck -11.4528 -0.305244 -2.19261
upperneck -7.35874 -0.418186 1.47041
head -0.393469 -0.283834 0.802649
rclavicle 2.78299e-015 1.66979e-014
rhumerus -25.6734 11.8191 -86.9732
rradius 29.5877
rwrist 12.1918
rhand -17.0504 24.2242
rfingers 7.12502
rthumb 9.18671 -5.55571
lclavicle 2.78299e-015 1.66979e-014
lhumerus -22.7428 -17.227 87.0469
lradius 34.0428
lwrist 10.6196
lhand -8.86767 35.7436
lfingers 7.12502
lthumb 17.0738 65.0134
rfemur -43.2241 6.92492 9.82935
rtibia 31.0443
rfoot -7.2014 3.84835
rtoes 47.1444
lfemur -42.8738 3.46121 -16.8667
ltibia 35.5651
lfoot -17.1541 6.25539
ltoes -12.2337
1054
root 16.8671 18.2083 -0.897241 -361.598 -90.8708 24.2549
lowerback 8.14912 1.57347 -2.12487
upperback 11.6771 1.40117 -0.590129
thorax 7.69916 0.292609 0.507251
lowerneck -11.0359 -0.422318 -2.0589
upperneck -7.79045 -0.60034 1.52035
head -0.591254 -0.38256 0.791726
rclavicle -2.78299e-015 3.77691e-015
rhumerus -25.548 11.8703 -87.1552
rradius 29.5578
rwrist 11.7927
rhand -17.0387 24.2942
rfingers 7.12502
rthumb 9.198 -5.48515
lclavicle -2.78299e-015 3.77691e-015
lhumerus -22.6624 -17.7276 87.1531
lradius 34.1632
lwrist 10.8266
lhand -8.43455 35.7007
lfingers 7.12502
lthumb 17.4907 64.9339
rfemur -43.6903 6.48014 9.81792
rtibia 31.2855
rfoot -6.9886 3.84254
rtoes 47.1548
lfemur -43.5222 3.53911 -17.0266
ltibia 35.875
lfoot -16.937 6.03207
ltoes -12.3028
1055
root 16.9022 18.1905 -0.89452 -364.382 -90.641 27.296
lowerback 8.47189 1.57192 -2.01707
upperback 11.7353 1.38584 -0.647717
thorax 7.58607 0.293864 0.381326
lowerneck -10.7523 -0.53623 -1.97163
upperneck -8.17837 -0.771666 1.56689
head -0.754224 -0.475648 0.789277
rclavicle 1.25234e-014 2.5842e-015
rhumerus -25.3691 12.0048 -87.3007
rradius 29.5366
rwrist 11.3084
rhand -17.0908 24.4048
rfingers 7.12502
rthumb 9.14777 -5.37677
lclavicle 1.25234e-014 2.5842e-015
lhumerus -22.5324 -18.1562 87.2815
lradius 34.2957
lwrist 11.0945
lhand -8.04031 35.6428
lfingers 7.12502
lthumb 17.8701 64.8418
rfemur -44.1568 6.01953 9.8389
rtibia 31.5175
rfoot -6.75953 3.8095
rtoes 47.2279
lfemur -44.1562 3.5931 -17.161
ltibia 36.1715
lfoot -16.7482 5.82884
ltoes -12.2984
1056
root 16.9359 18.1734 -0.892545 -370.31 -90.4463 33.4818
lowerback 8.76101 1.57428 -1.94967
upperback 11.8238 1.372 -0.667166
thorax 7.52437 0.289026 0.318637
lowerneck -10.5935 -0.639623 -1.93582
upperneck -8.51803 -0.923133 1.5998
head -0.882919 -0.557908 0.792247
rclavicle -4.96962e-015 -3.48867e-014
rhumerus -25.1195 12.2354 -87.3887
rradius 29.4873
rwrist 10.751
rhand -17.1458 24.5809
rfingers 7.12502
rthumb 9.09464 -5.20304
lclavicle -4.96962e-015 -3.48867e-014
lhumerus -22.3605 -18.5198 87.458
lradius 34.4203
lwrist 11.3264
lhand -7.7309 35.5437
lfingers 7.12502
lthumb 18.1677 64.7152
rfemur -44.6187 5.55696 9.89599
rtibia 31.7301
rfoot -6.51487 3.74869
rtoes 47.3284
lfemur -44.7706 3.61493 -17.2601
ltibia 36.4531
lfoot -16.5903 5.67881
ltoes -12.325
1057
root 16.9672 18.158 -0.891016 -380.407 -90.2966 43.8295
lowerback 9.018 1.59076 -1.92313
upperback 11.9249 1.37464 -0.661078
thorax 7.49347 0.287093 0.30576
lowerneck -10.4816 -0.733953 -1.93137
upperneck -8.82598 -1.05945 1.61422
head -0.99483 -0.631606 0.795396
rclavicle -2.42517e-014 2.66371e-014
rhumerus -24.8396 12.5054 -87.4246
rradius 29.3915
rwrist 10.1812
rhand -17.1341 24.8249
rfingers 7.12502
rthumb 9.10594 -4.95857
lclavicle -2.42517e-014 2.66371e-014
lhumerus -22.1814 -18.8539 87.6861
lradius 34.5145
lwrist 11.4779
lhand -7.50154 35.3731
lfingers 7.12502
lthumb 18.3884 64.5239
rfemur -45.066 5.11753 9.96834
rtibia 31.9235
rfoot -6.2718 3.66959
rtoes 47.4148
lfemur -45.3482 3.60813 -17.3377
ltibia 36.7152
lfoot -16.4606 5.60255
ltoes -12.4697
1058
root 16.9962 18.1446 -0.889851 -396.994 -90.1837 60.651
lowerback 9.25539 1.61671 -1.93518
upperback 12.0321 1.38765 -0.635936
thorax 7.47926 0.285831 0.334459
lowerneck -10.4029 -0.821404 -1.97139
upperneck -9.09892 -1.18189 1.62146
head -1.09093 -0.696647 0.80416
rclavicle -1.36167e-014 -1.10325e-014
rhumerus -24.5454 12.7802 -87.4074
rradius 29.2489
rwrist 9.67086
rhand -17.0185 25.1149
rfingers 7.12502
rthumb 9.21747 -4.6636
lclavicle -1.36167e-014 -1.10325e-014
lhumerus -21.9878 -19.1413 87.9547
lradius 34.5566
lwrist 11.5624
lhand -7.31221 35.1305
lfingers 7.12502
lthumb 18.5705 64.2641
rfemur -45.4944 4.72306 10.0291
rtibia 32.1071
rfoot -6.05713 3.5865
rtoes 47.4736
lfemur -45.8816 3.58662 -17.4143
ltibia 36.9538
lfoot -16.3496 5.58398
ltoes -12.7364
1059
root 17.0237 18.1325 -0.889215 -438.021 -90.1155 101.901
lowerback 9.48419 1.63798 -1.96743
upperback 12.1444 1.39252 -0.591497
thorax 7.47503 0.277576 0.395087
lowerneck -10.3721 -0.903791 -2.07398
upperneck -9.32803 -1.29011 1.64378
head -1.16576 -0.75225 0.828162
rclavicle -9.59136e-015 6.85807e-015
rhumerus -24.2388 13.0539 -87.3446
rradius 29.0666
rwrist 9.27866
rhand -16.8636 25.4605
rfingers 7.12502
rthumb 9.367 -4.31134
lclavicle -9.59136e-015 6.85807e-015
lhumerus -21.7661 -19.3707 88.252
lradius 34.5475
lwrist 11.6145
lhand -7.14961 34.876
lfingers 7.12502
lthumb 18.7269 63.9945
rfemur -45.9112 4.38056 10.0728
rtibia 32.2954
rfoot -5.89172 3.51921
rtoes 47.5169
lfemur -46.3835 3.56423 -17.4921
ltibia 37.1695
lfoot -16.2442 5.58759
ltoes -13.0634
